HIERARCHY
ROOT Hips
{
 OFFSET 0.000000 0.000000 0.000000
 CHANNELS 6 Xposition Yposition Zposition Yrotation Xrotation Zrotation
 JOINT Chest
 {
  OFFSET 0.000000 9.585900 0.002600
  CHANNELS 3 Yrotation Xrotation Zrotation
  JOINT Chest2
  {
   OFFSET 0.000000 9.601200 -0.005300
   CHANNELS 3 Yrotation Xrotation Zrotation
   JOINT Chest3
   {
    OFFSET 0.000000 9.561800 0.000000
    CHANNELS 3 Yrotation Xrotation Zrotation
    JOINT Chest4
    {
     OFFSET 0.000000 9.552100 0.000000
     CHANNELS 3 Yrotation Xrotation Zrotation
     JOINT Neck
     {
      OFFSET 0.000000 14.453000 0.000000
      CHANNELS 3 Yrotation Xrotation Zrotation
      JOINT Head
      {
       OFFSET 0.000000 8.936500 -0.011300
       CHANNELS 3 Yrotation Xrotation Zrotation
       End Site
       {
        OFFSET 0.000000 17.073600 -0.006000
       }
      }
     }
     JOINT RightCollar
     {
      OFFSET -2.921100 9.558500 0.000000
      CHANNELS 3 Yrotation Xrotation Zrotation
      JOINT RightShoulder
      {
       OFFSET -13.519700 0.000000 0.000000
       CHANNELS 3 Yrotation Xrotation Zrotation
       JOINT RightElbow
       {
        OFFSET 0.000000 -29.696600 0.000000
        CHANNELS 3 Yrotation Xrotation Zrotation
        JOINT RightWrist
        {
         OFFSET 0.000000 -24.004700 0.000000
         CHANNELS 3 Yrotation Xrotation Zrotation
         End Site
         {
          OFFSET 0.000000 -17.728500 0.000000
         }
        }
       }
      }
     }
     JOINT LeftCollar
     {
      OFFSET 2.921100 9.558500 0.000000
      CHANNELS 3 Yrotation Xrotation Zrotation
      JOINT LeftShoulder
      {
       OFFSET 13.519700 0.000000 0.000000
       CHANNELS 3 Yrotation Xrotation Zrotation
       JOINT LeftElbow
       {
        OFFSET 0.000000 -29.696600 0.000000
        CHANNELS 3 Yrotation Xrotation Zrotation
        JOINT LeftWrist
        {
         OFFSET 0.000000 -24.004700 0.000000
         CHANNELS 3 Yrotation Xrotation Zrotation
         End Site
         {
          OFFSET 0.000000 -17.728500 0.000000
         }
        }
       }
      }
     }
    }
   }
  }
 }
 JOINT RightHip
 {
  OFFSET -7.771700 -0.012900 -0.001300
  CHANNELS 3 Yrotation Xrotation Zrotation
  JOINT RightKnee
  {
   OFFSET 0.000000 -40.869800 0.001200
   CHANNELS 3 Yrotation Xrotation Zrotation
   JOINT RightAnkle
   {
    OFFSET 0.000000 -39.717900 0.002100
    CHANNELS 3 Yrotation Xrotation Zrotation
    JOINT RightToe
    {
     OFFSET 0.000000 -4.965400 11.033500
     CHANNELS 3 Yrotation Xrotation Zrotation
     End Site
     {
      OFFSET 0.000000 -1.423100 5.872300
     }
    }
   }
  }
 }
 JOINT LeftHip
 {
  OFFSET 7.771700 -0.012900 -0.001300
  CHANNELS 3 Yrotation Xrotation Zrotation
  JOINT LeftKnee
  {
   OFFSET 0.000000 -40.869800 0.001200
   CHANNELS 3 Yrotation Xrotation Zrotation
   JOINT LeftAnkle
   {
    OFFSET 0.000000 -39.717900 0.002100
    CHANNELS 3 Yrotation Xrotation Zrotation
    JOINT LeftToe
    {
     OFFSET 0.000000 -4.965400 11.033500
     CHANNELS 3 Yrotation Xrotation Zrotation
     End Site
     {
      OFFSET 0.000000 -1.423100 5.872300
     }
    }
   }
  }
 }
}
MOTION
Frames: 8
Frame Time: 0.008333
0.000000 85.388000 0.000000 0.000000 -5.767877 0.000000 0.000000 11.653817 0.000000 0.000000 -5.885947 0.000000 0.000000 -0.000000 0.000000 0.000000 -0.000000 0.000000 0.000000 12.528835 0.000000 0.000000 0.711642 0.000000 0.000000 -0.000000 0.000000 0.000000 0.000000 -90.000000 0.000000 -2.309062 0.000000 0.000000 2.309062 0.000000 0.000000 -0.000000 0.000000 0.000000 -0.000000 90.000000 0.000000 -2.309062 0.000000 0.000000 2.309062 0.000000 0.000000 8.520406 0.000000 0.000000 1.905762 0.000000 -0.000000 -4.658285 0.000000 0.000000 -0.000000 0.000000 0.000000 8.520406 0.000000 0.000000 1.905762 0.000000 -0.000000 -4.658285 0.000000 0.000000 -0.000000 0.000000
-38.025327 50.570579 5.852226 161.335979 -15.590748 -0.670750 3.711372 11.768895 1.556181 0.265933 0.889501 0.030530 0.454360 1.518685 0.054865 3.305236 10.810902 0.661322 2.785663 16.859431 -0.271451 5.248965 -4.426991 -1.460920 4.011792 7.091784 0.335819 -9.264666 -14.709653 -8.918331 -75.183731 -67.532414 101.847067 -2.272584 4.537361 -29.199352 -6.676488 4.107926 -0.453440 22.161059 -8.706766 1.854458 84.535484 -71.218532 -111.013717 1.252207 9.268096 14.162519 -0.676989 -65.518598 0.461503 -99.536065 82.451180 -99.437757 -3.064220 -11.780314 1.222252 -0.331679 0.828290 -0.150288 -7.772043 -68.484691 26.580360 103.632049 78.926378 99.790966 -16.591852 -18.627877 0.137646 -0.342915 -1.174359 -0.140578
-38.026147 50.570813 5.852451 161.347692 -15.580845 -0.664419 3.693248 11.773402 1.548177 0.265201 0.889343 0.030916 0.453127 1.518518 0.055062 3.297685 10.811093 0.663365 2.791369 16.860042 -0.273153 5.260325 -4.425579 -1.466077 4.022333 7.084693 0.329043 -9.261189 -14.704759 -8.913396 -75.167764 -67.540722 101.822359 -2.271107 4.533567 -29.197766 -6.676607 4.099609 -0.461704 22.156391 -8.703561 1.860612 84.516073 -71.216151 -110.984291 1.259511 9.295993 14.151569 -0.669950 -65.530578 0.439095 -99.584864 82.453003 -99.486133 -3.063714 -11.783094 1.216031 -0.334663 0.826929 -0.146636 -7.758580 -68.494673 26.553299 103.566914 78.916933 99.726562 -16.589421 -18.593972 0.136886 -0.264211 -1.169136 -0.133723
-38.026715 50.570963 5.853304 161.364672 -15.566796 -0.660108 3.673039 11.770206 1.540888 0.258509 0.897788 0.031240 0.457979 1.509358 0.054953 3.290292 10.810760 0.664716 2.789923 16.868497 -0.273136 5.275242 -4.428962 -1.473662 4.026853 7.085025 0.327430 -9.245123 -14.695993 -8.905942 -75.162003 -67.559131 101.799559 -2.271203 4.528282 -29.207714 -6.690383 4.091993 -0.467577 22.160593 -8.697428 1.866133 84.533760 -71.212472 -110.985654 1.260589 9.303090 14.147148 -0.663692 -65.543753 0.414264 -99.613561 82.455843 -99.512977 -3.063102 -11.791977 1.212928 -0.338189 0.831514 -0.145307 -7.756698 -68.509187 26.534433 103.483267 78.896497 99.640700 -16.602059 -18.550103 0.138166 -0.281180 -1.140490 -0.134213
-38.024584 50.571735 5.852918 161.366538 -15.565238 -0.662495 3.663958 11.782318 1.542444 0.261807 0.893606 0.033331 0.454706 1.507575 0.049649 3.283380 10.810262 0.662974 2.802445 16.863835 -0.273002 5.284663 -4.403785 -1.463430 4.041162 7.089464 0.332790 -9.234314 -14.695558 -8.905785 -75.140621 -67.568208 101.762480 -2.271024 4.518975 -29.222982 -6.682395 4.087569 -0.466783 22.150060 -8.693235 1.872972 84.475485 -71.215205 -110.920791 1.257856 9.286913 14.144838 -0.666520 -65.543182 0.423568 -99.607197 82.449719 -99.507188 -3.069051 -11.797239 1.212042 -0.333906 0.834747 -0.141652 -7.762167 -68.510302 26.538920 103.440123 78.888143 99.600022 -16.594604 -18.510977 0.133994 -0.288091 -1.159077 -0.136491
-38.023265 50.572577 5.851999 161.359213 -15.565568 -0.654627 3.667961 11.788182 1.538900 0.261080 0.895289 0.033721 0.452206 1.511540 0.052835 3.270945 10.816674 0.666748 2.810917 16.861001 -0.278838 5.290646 -4.409067 -1.472203 4.051393 7.084795 0.319884 -9.225673 -14.699972 -8.905447 -75.097460 -67.570912 101.705599 -2.271744 4.512553 -29.237228 -6.668920 4.070571 -0.479312 22.133730 -8.689484 1.879777 84.422233 -71.219692 -110.858557 1.254560 9.292731 14.133233 -0.645214 -65.541842 0.411278 -99.604593 82.447839 -99.504935 -3.069578 -11.802761 1.211526 -0.333837 0.838907 -0.142373 -7.745050 -68.505831 26.528537 103.406816 78.887218 99.564248 -16.585840 -18.475508 0.133549 -0.275360 -1.176543 -0.138413
-38.020500 50.573125 5.852958 161.361920 -15.558540 -0.659178 3.663804 11.789490 1.545438 0.262640 0.888954 0.031022 0.448765 1.517660 0.055578 3.268275 10.813283 0.664192 2.811625 16.866728 -0.275673 5.298400 -4.412498 -1.477505 4.053221 7.092640 0.320631 -9.216899 -14.705552 -8.907518 -75.067288 -67.572215 101.661327 -2.276463 4.516985 -29.248238 -6.664306 4.073906 -0.477163 22.117615 -8.691056 1.877555 84.349786 -71.231057 -110.785615 1.254237 9.294535 14.133513 -0.656157 -65.550684 0.423411 -99.621456 82.445695 -99.521876 -3.063298 -11.794239 1.208320 -0.340597 0.830000 -0.142269 -7.765824 -68.509517 26.546585 103.333032 78.870077 99.492019 -16.583217 -18.432404 0.125862 -0.283205 -1.147587 -0.138209
-38.018215 50.572518 5.858346 161.379969 -15.525779 -0.671687 3.640514 11.782143 1.553956 0.265720 0.876851 0.030363 0.448220 1.517219 0.055511 3.265004 10.811975 0.664159 2.813615 16.875945 -0.271702 5.306742 -4.419242 -1.484261 4.060303 7.090510 0.316902 -9.205003 -14.703144 -8.908687 -75.083689 -67.577484 101.661755 -2.280698 4.523383 -29.253474 -6.658278 4.078531 -0.482074 22.102576 -8.701110 1.875889 84.199766 -71.254880 -110.643923 1.261053 9.271952 14.141535 -0.689046 -65.583476 0.443833 -99.612545 82.444033 -99.512224 -3.054706 -11.792771 1.208782 -0.344795 0.830848 -0.148980 -7.819053 -68.538907 26.582931 103.177932 78.826320 99.334520 -16.597337 -18.382952 0.117717 -0.280870 -1.159360 -0.138764
